<svg width="317" height="29" viewBox="0 0 317 29" fill="none" xmlns="http://www.w3.org/2000/svg">
<path fill-rule="evenodd" clip-rule="evenodd" d="M316.675 9.34087C315.382 5.99146 304.276 4.58112 270.899 3.40589C239.756 2.28941 203.5 -0.94242 140.155 0.82043C91.735 2.17195 31.4455 7.57808 31.4455 10.5749C31.4455 12.7491 33.7961 12.8079 56.243 10.8687C76.9859 9.10589 87.6218 8.69455 100.608 8.22446C48.5452 12.8079 37.4392 15.8046 9.70366 18.6839C-7.6898 20.5055 2.47597 25.7354 8.82223 25.2065C8.88099 25.2065 89.7959 18.6252 97.4349 18.9777C98.14 19.0365 90.4423 20.0942 80.2765 21.3282C51.8946 24.8539 57.3594 30.73 78.6311 28.027C150.203 18.9189 217.544 16.0983 269.43 20.0353C285.825 21.2693 287.646 21.2693 287.646 19.7415C287.646 17.0385 283.181 14.9819 276.188 14.5706C265.258 13.8655 223.185 11.8675 204.146 11.2799C202.677 11.2211 203.382 10.1048 204.675 9.98731C212.432 9.22341 274.014 9.8108 298.224 10.6335C316.028 11.2211 317.321 11.1625 316.675 9.34087Z" fill="#0C9140"/>
</svg>
